<mxfile host="app.diagrams.net" agent="Mozilla/5.0 (Windows NT 10.0; Win64; x64) AppleWebKit/537.36 (KHTML, like Gecko) Chrome/130.0.0.0 Safari/537.36" version="24.8.6">
  <diagram name="Page-1" id="7uVoAxF6LNE9zVGtXjIu">
    <mxGraphModel dx="1434" dy="892" grid="1" gridSize="10" guides="1" tooltips="1" connect="1" arrows="1" fold="1" page="1" pageScale="1" pageWidth="850" pageHeight="1100" math="0" shadow="0">
      <root>
        <mxCell id="0" />
        <mxCell id="1" parent="0" />
        <mxCell id="KgU15q7wXIkb3UShMSy3-25" value="" style="rounded=0;whiteSpace=wrap;html=1;" vertex="1" parent="1">
          <mxGeometry x="70" y="30" width="670" height="470" as="geometry" />
        </mxCell>
        <mxCell id="KgU15q7wXIkb3UShMSy3-3" value="" style="edgeStyle=orthogonalEdgeStyle;rounded=0;orthogonalLoop=1;jettySize=auto;html=1;" edge="1" parent="1" source="KgU15q7wXIkb3UShMSy3-1" target="KgU15q7wXIkb3UShMSy3-2">
          <mxGeometry relative="1" as="geometry" />
        </mxCell>
        <mxCell id="KgU15q7wXIkb3UShMSy3-1" value="Inventory&lt;br&gt;page" style="shape=display;whiteSpace=wrap;html=1;" vertex="1" parent="1">
          <mxGeometry x="385" y="40" width="80" height="40" as="geometry" />
        </mxCell>
        <mxCell id="KgU15q7wXIkb3UShMSy3-5" value="" style="edgeStyle=orthogonalEdgeStyle;rounded=0;orthogonalLoop=1;jettySize=auto;html=1;" edge="1" parent="1" source="KgU15q7wXIkb3UShMSy3-2" target="KgU15q7wXIkb3UShMSy3-4">
          <mxGeometry relative="1" as="geometry" />
        </mxCell>
        <mxCell id="KgU15q7wXIkb3UShMSy3-2" value="Show all items" style="shape=parallelogram;perimeter=parallelogramPerimeter;whiteSpace=wrap;html=1;fixedSize=1;" vertex="1" parent="1">
          <mxGeometry x="365" y="150" width="120" height="60" as="geometry" />
        </mxCell>
        <mxCell id="KgU15q7wXIkb3UShMSy3-9" value="" style="edgeStyle=orthogonalEdgeStyle;rounded=0;orthogonalLoop=1;jettySize=auto;html=1;" edge="1" parent="1" source="KgU15q7wXIkb3UShMSy3-4" target="KgU15q7wXIkb3UShMSy3-8">
          <mxGeometry relative="1" as="geometry" />
        </mxCell>
        <mxCell id="KgU15q7wXIkb3UShMSy3-4" value="user select an &lt;br&gt;item and &lt;br&gt;the item &lt;br&gt;modal is open" style="shape=parallelogram;perimeter=parallelogramPerimeter;whiteSpace=wrap;html=1;fixedSize=1;" vertex="1" parent="1">
          <mxGeometry x="565" y="150" width="120" height="60" as="geometry" />
        </mxCell>
        <mxCell id="KgU15q7wXIkb3UShMSy3-11" value="" style="edgeStyle=orthogonalEdgeStyle;rounded=0;orthogonalLoop=1;jettySize=auto;html=1;" edge="1" parent="1" source="KgU15q7wXIkb3UShMSy3-8" target="KgU15q7wXIkb3UShMSy3-10">
          <mxGeometry relative="1" as="geometry" />
        </mxCell>
        <mxCell id="KgU15q7wXIkb3UShMSy3-8" value="user click on add to invoice" style="shape=parallelogram;perimeter=parallelogramPerimeter;whiteSpace=wrap;html=1;fixedSize=1;" vertex="1" parent="1">
          <mxGeometry x="565" y="290" width="120" height="60" as="geometry" />
        </mxCell>
        <mxCell id="KgU15q7wXIkb3UShMSy3-13" value="" style="edgeStyle=orthogonalEdgeStyle;rounded=0;orthogonalLoop=1;jettySize=auto;html=1;" edge="1" parent="1" source="KgU15q7wXIkb3UShMSy3-10" target="KgU15q7wXIkb3UShMSy3-12">
          <mxGeometry relative="1" as="geometry" />
        </mxCell>
        <mxCell id="KgU15q7wXIkb3UShMSy3-14" value="&amp;nbsp;NO&amp;nbsp;" style="edgeLabel;html=1;align=center;verticalAlign=middle;resizable=0;points=[];" vertex="1" connectable="0" parent="KgU15q7wXIkb3UShMSy3-13">
          <mxGeometry x="0.0154" y="-2" relative="1" as="geometry">
            <mxPoint as="offset" />
          </mxGeometry>
        </mxCell>
        <mxCell id="KgU15q7wXIkb3UShMSy3-10" value="does an invoice &lt;br&gt;exists" style="rhombus;whiteSpace=wrap;html=1;" vertex="1" parent="1">
          <mxGeometry x="385" y="280" width="80" height="80" as="geometry" />
        </mxCell>
        <mxCell id="KgU15q7wXIkb3UShMSy3-18" value="" style="edgeStyle=orthogonalEdgeStyle;rounded=0;orthogonalLoop=1;jettySize=auto;html=1;" edge="1" parent="1" source="KgU15q7wXIkb3UShMSy3-12" target="KgU15q7wXIkb3UShMSy3-17">
          <mxGeometry relative="1" as="geometry" />
        </mxCell>
        <mxCell id="KgU15q7wXIkb3UShMSy3-12" value="No invoice exists&lt;br&gt;please create an invoice first" style="shape=parallelogram;perimeter=parallelogramPerimeter;whiteSpace=wrap;html=1;fixedSize=1;" vertex="1" parent="1">
          <mxGeometry x="80" y="290" width="120" height="60" as="geometry" />
        </mxCell>
        <mxCell id="KgU15q7wXIkb3UShMSy3-15" style="edgeStyle=orthogonalEdgeStyle;rounded=0;orthogonalLoop=1;jettySize=auto;html=1;entryX=0;entryY=0.5;entryDx=0;entryDy=0;entryPerimeter=0;exitX=0.5;exitY=0;exitDx=0;exitDy=0;" edge="1" parent="1" source="KgU15q7wXIkb3UShMSy3-12" target="KgU15q7wXIkb3UShMSy3-1">
          <mxGeometry relative="1" as="geometry" />
        </mxCell>
        <mxCell id="KgU15q7wXIkb3UShMSy3-16" value="After createing an invoice &lt;br&gt;go back to inventory page" style="text;html=1;align=center;verticalAlign=middle;resizable=0;points=[];autosize=1;strokeColor=none;fillColor=none;" vertex="1" parent="1">
          <mxGeometry x="140" y="60" width="160" height="40" as="geometry" />
        </mxCell>
        <mxCell id="KgU15q7wXIkb3UShMSy3-20" value="" style="edgeStyle=orthogonalEdgeStyle;rounded=0;orthogonalLoop=1;jettySize=auto;html=1;" edge="1" parent="1" source="KgU15q7wXIkb3UShMSy3-17" target="KgU15q7wXIkb3UShMSy3-19">
          <mxGeometry relative="1" as="geometry" />
        </mxCell>
        <mxCell id="KgU15q7wXIkb3UShMSy3-17" value="user select an amount" style="shape=parallelogram;perimeter=parallelogramPerimeter;whiteSpace=wrap;html=1;fixedSize=1;" vertex="1" parent="1">
          <mxGeometry x="80" y="430" width="120" height="60" as="geometry" />
        </mxCell>
        <mxCell id="KgU15q7wXIkb3UShMSy3-22" value="" style="edgeStyle=orthogonalEdgeStyle;rounded=0;orthogonalLoop=1;jettySize=auto;html=1;" edge="1" parent="1" source="KgU15q7wXIkb3UShMSy3-19" target="KgU15q7wXIkb3UShMSy3-21">
          <mxGeometry relative="1" as="geometry" />
        </mxCell>
        <mxCell id="KgU15q7wXIkb3UShMSy3-19" value="APi i called with the data" style="whiteSpace=wrap;html=1;" vertex="1" parent="1">
          <mxGeometry x="280" y="430" width="120" height="60" as="geometry" />
        </mxCell>
        <mxCell id="KgU15q7wXIkb3UShMSy3-24" value="" style="edgeStyle=orthogonalEdgeStyle;rounded=0;orthogonalLoop=1;jettySize=auto;html=1;" edge="1" parent="1" source="KgU15q7wXIkb3UShMSy3-21" target="KgU15q7wXIkb3UShMSy3-23">
          <mxGeometry relative="1" as="geometry" />
        </mxCell>
        <mxCell id="KgU15q7wXIkb3UShMSy3-21" value="data is saved in the database" style="whiteSpace=wrap;html=1;" vertex="1" parent="1">
          <mxGeometry x="480" y="430" width="120" height="60" as="geometry" />
        </mxCell>
        <mxCell id="KgU15q7wXIkb3UShMSy3-23" value="inventory&lt;br&gt;page" style="shape=display;whiteSpace=wrap;html=1;" vertex="1" parent="1">
          <mxGeometry x="650" y="440" width="80" height="40" as="geometry" />
        </mxCell>
      </root>
    </mxGraphModel>
  </diagram>
</mxfile>
